<svg width="28" height="6" viewBox="0 0 28 6" fill="none" xmlns="http://www.w3.org/2000/svg">
<path d="M1 2.625C1 3.05598 1.17121 3.4693 1.47595 3.77405C1.7807 4.07879 2.19402 4.25 2.625 4.25C3.05598 4.25 3.4693 4.07879 3.77405 3.77405C4.07879 3.4693 4.25 3.05598 4.25 2.625C4.25 2.19402 4.07879 1.7807 3.77405 1.47595C3.4693 1.17121 3.05598 1 2.625 1C2.19402 1 1.7807 1.17121 1.47595 1.47595C1.17121 1.7807 1 2.19402 1 2.625ZM12.375 2.625C12.375 3.05598 12.5462 3.4693 12.851 3.77405C13.1557 4.07879 13.569 4.25 14 4.25C14.431 4.25 14.8443 4.07879 15.149 3.77405C15.4538 3.4693 15.625 3.05598 15.625 2.625C15.625 2.19402 15.4538 1.7807 15.149 1.47595C14.8443 1.17121 14.431 1 14 1C13.569 1 13.1557 1.17121 12.851 1.47595C12.5462 1.7807 12.375 2.19402 12.375 2.625ZM23.75 2.625C23.75 3.05598 23.9212 3.4693 24.226 3.77405C24.5307 4.07879 24.944 4.25 25.375 4.25C25.806 4.25 26.2193 4.07879 26.524 3.77405C26.8288 3.4693 27 3.05598 27 2.625C27 2.19402 26.8288 1.7807 26.524 1.47595C26.2193 1.17121 25.806 1 25.375 1C24.944 1 24.5307 1.17121 24.226 1.47595C23.9212 1.7807 23.75 2.19402 23.75 2.625Z" stroke="#356F8B" stroke-opacity="0.64" stroke-width="2" stroke-linecap="round" stroke-linejoin="round"/>
</svg>
